<svg xmlns="http://www.w3.org/2000/svg" width="900" height="210" viewBox="0 0 900 210" role="img" aria-labelledby="title desc">
  <title id="title">TTS Ultimate</title>
  <desc id="desc">TTS Ultimate logo with a speech waveform mark and wordmark.</desc>
  <defs>
    <linearGradient id="markGradient" x1="16" y1="18" x2="172" y2="172" gradientUnits="userSpaceOnUse">
      <stop offset="0" stop-color="#ffb3f0"/>
      <stop offset="0.5" stop-color="#f47adf"/>
      <stop offset="1" stop-color="#d84fc2"/>
    </linearGradient>
    <linearGradient id="textGradient" x1="218" y1="70" x2="620" y2="70" gradientUnits="userSpaceOnUse">
      <stop offset="0" stop-color="#f56bdd"/>
      <stop offset="0.55" stop-color="#e24ac8"/>
      <stop offset="1" stop-color="#b932a8"/>
    </linearGradient>
    <filter id="softShadow" x="-20%" y="-20%" width="140%" height="140%">
      <feDropShadow dx="0" dy="8" stdDeviation="9" flood-color="#172033" flood-opacity="0.16"/>
    </filter>
  </defs>

  <rect x="10" y="10" width="880" height="190" rx="34" fill="#ffffff"/>
  <rect x="10" y="10" width="880" height="190" rx="34" fill="none" stroke="#d9e1ef" stroke-width="2"/>

  <g filter="url(#softShadow)">
    <rect x="48" y="34" width="142" height="142" rx="36" fill="url(#markGradient)"/>
    <path d="M78 106c15-24 36-36 61-36 18 0 33 6 46 18" fill="none" stroke="#ffffff" stroke-width="10" stroke-linecap="round"/>
    <path d="M78 106c15 24 36 36 61 36 18 0 33-6 46-18" fill="none" stroke="#ffffff" stroke-width="10" stroke-linecap="round" opacity="0.92"/>
    <path d="M86 108h12m15 18V90m17 54V72m17 62V82m17 38v-28" fill="none" stroke="#ffffff" stroke-width="8" stroke-linecap="round"/>
    <circle cx="75" cy="106" r="8" fill="#ffffff"/>
    <circle cx="186" cy="106" r="5" fill="#ffffff" opacity="0.8"/>
  </g>

  <g font-family="Inter, Avenir Next, Segoe UI, Arial, sans-serif">
    <text x="220" y="100" fill="url(#textGradient)" font-size="62" font-weight="900" letter-spacing="3">TTS</text>
    <text x="355" y="100" fill="#2a1830" font-size="62" font-weight="850" letter-spacing="2">ULTIMATE</text>
    <text x="224" y="137" fill="#6f5574" font-size="24" font-weight="600" letter-spacing="1">NODE-RED TEXT TO SPEECH</text>
    <path d="M224 153h312" stroke="url(#textGradient)" stroke-width="6" stroke-linecap="round"/>
    <path d="M552 153h34" stroke="#ffb3f0" stroke-width="6" stroke-linecap="round"/>
  </g>
</svg>
